PathFileType	4	(X/Y/Z)	E:\Qualisys_Data\Carbon_Farble_Plate\Data\Amateur_Runner\S14\T1\S14T1V24_c3d.trc
DataRate	CameraRate	NumFrames	NumMarkers	Units	OrigDataRate	OrigDataStartFrame	OrigNumFrames
200.000000	200.000000	5	39	mm	200.000000	0	314
Frame#	Time	LSHO			RSHO			LICST			RICST			LASIS			LHEEL			RASIS			LTROC			RTROC			SACR			LTH1			LSK4			LTH2			LTH3			RHM5			LSK2			LTH4			RTH1			LTOE			RTH2			RTH3			RTH4			LLEP			RLEP			LSK1			LSK3			RSK1			LHM5			RSK2			LFT1			RSK3			RSK4			LLME			RLME			RTOE			RHEEL			RFT1			RFT2			LFT2			
		X1	Y1	Z1	X2	Y2	Z2	X3	Y3	Z3	X4	Y4	Z4	X5	Y5	Z5	X6	Y6	Z6	X7	Y7	Z7	X8	Y8	Z8	X9	Y9	Z9	X10	Y10	Z10	X11	Y11	Z11	X12	Y12	Z12	X13	Y13	Z13	X14	Y14	Z14	X15	Y15	Z15	X16	Y16	Z16	X17	Y17	Z17	X18	Y18	Z18	X19	Y19	Z19	X20	Y20	Z20	X21	Y21	Z21	X22	Y22	Z22	X23	Y23	Z23	X24	Y24	Z24	X25	Y25	Z25	X26	Y26	Z26	X27	Y27	Z27	X28	Y28	Z28	X29	Y29	Z29	X30	Y30	Z30	X31	Y31	Z31	X32	Y32	Z32	X33	Y33	Z33	X34	Y34	Z34	X35	Y35	Z35	X36	Y36	Z36	X37	Y37	Z37	X38	Y38	Z38	X39	Y39	Z39	

1	0	-2730.062744140625	1487.498413085938	-495.5754699707031	-2770.140380859375	1485.729370117188	-208.7196960449219	-2770.90625	1029.374145507812	-484.9307556152344	-2753.52783203125	1041.307373046875	-211.4544067382812	-2738.5068359375	973.3175048828125	-460.3148498535156	-3313.806396484375	318.9805603027344	-368.4109191894531	-2727.061279296875	998.3767700195312	-230.3560028076172	-2907.089599609375	937.3807373046875	-495.2755737304688	-2860.864501953125	951.438720703125	-168.8761901855469	-2899.525390625	1046.617309570312	-350.9372253417969	-2923.46728515625	709.15283203125	-502.7384948730469	-3195.5654296875	446.2503967285156	-442.2653503417969	-2987.5400390625	739.1682739257812	-467.8769226074219	-2952.196044921875	615.5027465820312	-481.7559814453125	-2560.423828125	127.8997421264648	-178.9524078369141	-3130.868896484375	520.3244018554688	-458.6402587890625	-3020.765380859375	646.9391479492188	-453.2889099121094	-2636.5693359375	769.047607421875	-177.0883178710938	-3239.34423828125	72.68955993652344	-407.8321228027344	-2704.01416015625	733.8182373046875	-172.3543090820312	-2586.852783203125	684.2891845703125	-202.2787017822266	-2658.248291015625	644.1895141601562	-187.7032165527344	-3014.13134765625	566.3468017578125	-467.3421936035156	-2609.48779296875	590.6800537109375	-190.8386993408203	-3069.9306640625	465.8688659667969	-469.0386047363281	-3138.83740234375	390.7821350097656	-458.5503845214844	-2598.1162109375	465.6053771972656	-184.9865875244141	-3286.769775390625	129.6433258056641	-460.6488037109375	-2683.155029296875	473.6285705566406	-184.8859100341797	-3326.539794921875	296.5816955566406	-338.0944519042969	-2615.2998046875	363.4791259765625	-197.0702667236328	-2693.945068359375	378.7388000488281	-196.3225708007812	-3281.01611328125	284.3617553710938	-430.4539184570312	-2683.454345703125	197.9848785400391	-214.6775512695312	-2483.770263671875	132.1361389160156	-236.7764892578125	-2738.79052734375	172.5451812744141	-270.6685485839844	-2724.506103515625	142.2082672119141	-299.6269836425781	-2736.669189453125	149.3269958496094	-242.8673706054688	-3341.82080078125	306.8014831542969	-391.1300354003906
2	0.005	-2709.274658203125	1489.308471679688	-494.4669189453125	-2750.660888671875	1487.037841796875	-208.1243743896484	-2749.26123046875	1030.728515625	-484.4086303710938	-2732.213134765625	1042.16943359375	-211.7322540283203	-2717.71630859375	974.8042602539062	-459.9493103027344	-3301.08447265625	328.7510986328125	-366.777099609375	-2705.684814453125	1000.059753417969	-230.6849822998047	-2886.6083984375	939.6677856445312	-495.7236633300781	-2839.677734375	952.96484375	-169.8593292236328	-2878.257080078125	1048.82763671875	-351.5796203613281	-2903.940185546875	711.537841796875	-503.6561584472656	-3179.29150390625	453.0828247070312	-442.4291687011719	-2968.7509765625	741.745849609375	-469.1017456054688	-2933.292724609375	617.7022705078125	-482.6063537597656	-2518.37890625	128.3933868408203	-178.8713684082031	-3112.962646484375	525.3746337890625	-458.9240417480469	-3001.519287109375	649.5294799804688	-453.8524169921875	-2617.095947265625	767.9944458007812	-177.9273071289062	-3232.7392578125	82.68704986572266	-411.9002380371094	-2685.585693359375	734.502197265625	-173.5408020019531	-2569.196044921875	682.0060424804688	-202.6347808837891	-2640.223388671875	643.448974609375	-187.7003173828125	-2995.163818359375	569.2817993164062	-468.5723571777344	-2590.762451171875	589.3812255859375	-190.7153472900391	-3053.76904296875	470.068115234375	-470.6309814453125	-3123.6533203125	396.2278442382812	-458.9765319824219	-2575.36279296875	463.3623352050781	-184.7738647460938	-3279.491455078125	141.9752349853516	-462.4308166503906	-2661.43359375	468.7806091308594	-186.3441009521484	-3314.5517578125	307.2256469726562	-336.7117919921875	-2586.98779296875	360.9703063964844	-196.3585510253906	-2667.146240234375	372.5899047851562	-196.8173980712891	-3271.32421875	294.9552917480469	-432.097900390625	-2647.438720703125	191.6179046630859	-213.6738433837891	-2442.87255859375	137.7340393066406	-237.0252838134766	-2699.41650390625	162.6728210449219	-269.5274353027344	-2684.054443359375	133.3189544677734	-298.7055969238281	-2697.0029296875	139.9012451171875	-242.5068054199219	-3331.675537109375	318.0809020996094	-389.9058837890625
3	0.01	-2688.2099609375	1491.042114257812	-493.5804443359375	-2730.947509765625	1488.02294921875	-207.6064758300781	-2727.6376953125	1031.864624023438	-484.7343444824219	-2710.97119140625	1043.416625976562	-211.9618682861328	-2696.862548828125	975.48681640625	-460.3216247558594	-3288.308837890625	339.3810424804688	-366.2366943359375	-2684.867431640625	999.974853515625	-230.8998718261719	-2866.509521484375	941.8630981445312	-496.1735229492188	-2820.0654296875	954.2485961914062	-170.8872680664062	-2856.7099609375	1050.088623046875	-351.7166748046875	-2884.147216796875	713.7780151367188	-504.0347595214844	-3162.6591796875	460.2508850097656	-442.5004272460938	-2947.426513671875	743.527099609375	-467.3438720703125	-2912.9609375	619.73193359375	-483.5162048339844	-2477.339111328125	130.3943481445312	-178.072021484375	-3094.27978515625	530.4775390625	-459.8125915527344	-2981.04638671875	651.1788940429688	-453.9715881347656	-2597.530517578125	766.2081909179688	-178.5223236083984	-3224.865966796875	90.59197998046876	-415.6788940429688	-2666.05126953125	733.6547241210938	-174.2702789306641	-2549.80322265625	680.5131225585938	-203.087890625	-2622.090087890625	642.2216796875	-188.3770294189453	-2975.67578125	571.3101196289062	-469.7611083984375	-2573.605712890625	587.5803833007812	-191.3255920410156	-3036.90576171875	473.8094787597656	-471.6567993164062	-3108.7578125	401.1047973632812	-459.7369079589844	-2553.19580078125	462.2078857421875	-184.3659973144531	-3270.892333984375	152.9247894287109	-464.2651672363281	-2638.67578125	462.4204406738281	-186.0240478515625	-3301.309326171875	317.5309448242188	-335.5058898925781	-2559.572998046875	359.3861083984375	-195.5095672607422	-2639.818603515625	365.9827270507812	-196.2987518310547	-3259.486572265625	305.5120849609375	-431.2944946289062	-2609.718017578125	185.9250335693359	-213.1574401855469	-2403.393798828125	143.8374176025391	-236.8930511474609	-2661.19287109375	154.1648254394531	-268.8885498046875	-2643.94482421875	125.8403167724609	-298.4331970214844	-2657.067138671875	130.2636260986328	-241.56787109375	-3317.98974609375	329.151611328125	-388.0731506347656
4	0.015	-2666.93798828125	1491.805541992188	-492.2692565917969	-2711.00439453125	1488.094604492188	-206.4277038574219	-2706.28466796875	1032.833251953125	-484.447265625	-2689.619384765625	1043.171997070312	-212.1304473876953	-2676.03271484375	977.1030883789062	-460.9031982421875	-3275.372314453125	349.5107727050781	-363.7787780761719	-2664.4130859375	1000.031921386719	-232.0496368408203	-2846.03955078125	943.783935546875	-496.7470092773438	-2798.8798828125	953.8890991210938	-171.6048583984375	-2835.527587890625	1051.188720703125	-351.771484375	-2863.43798828125	714.8646850585938	-504.42724609375	-3145.9912109375	467.5348815917969	-442.9457092285156	-2926.925048828125	744.9190063476562	-467.76806640625	-2892.50927734375	620.6046752929688	-484.1699523925781	-2438.570556640625	131.8557281494141	-178.3606414794922	-3075.223876953125	535.6698608398438	-460.3371887207031	-2960.580322265625	652.4384155273438	-454.7226257324219	-2578.569580078125	764.8225708007812	-179.9341125488281	-3216.382568359375	100.7635116577148	-419.4148254394531	-2648.71142578125	732.4631958007812	-174.8865356445312	-2531.12841796875	678.6765747070312	-202.7102966308594	-2605.247802734375	639.8887939453125	-188.8758087158203	-2955.118408203125	572.6342163085938	-470.8665466308594	-2555.40625	584.8663940429688	-191.8370971679688	-3019.722412109375	476.8369750976562	-473.1742248535156	-3093.74365234375	406.9503479003906	-460.0839233398438	-2531.51708984375	460.1055603027344	-184.7026824951172	-3262.705322265625	165.3157653808594	-466.2336730957031	-2616.97021484375	456.5342712402344	-186.6166534423828	-3288.34619140625	326.860107421875	-334.51171875	-2532.1591796875	357.6131286621094	-194.278564453125	-2613.533935546875	359.9653015136719	-196.2547760009766	-3246.912841796875	315.7139892578125	-430.4155883789062	-2573.895751953125	180.0530548095703	-212.7283935546875	-2365.468017578125	151.0258026123047	-237.0544738769531	-2623.142333984375	146.1121520996094	-268.4102783203125	-2604.514404296875	119.4213714599609	-297.9115905761719	-2618.330078125	122.4439392089844	-241.8588409423828	-3305.3935546875	339.5879821777344	-386.1917114257812
5	0.02	-2645.7314453125	1492.515991210938	-490.8992919921875	-2691.216552734375	1488.492431640625	-206.0103912353516	-2685.49072265625	1034.11572265625	-484.5874328613281	-2668.174560546875	1042.83837890625	-212.5900573730469	-2654.724853515625	977.7426147460938	-460.901123046875	-3261.779052734375	359.2492980957031	-361.7203674316406	-2642.56591796875	999.7986450195312	-231.6226196289062	-2824.98388671875	944.6312866210938	-496.4042663574219	-2778.55908203125	953.368896484375	-171.9127502441406	-2814.63330078125	1052.338256835938	-351.9878234863281	-2842.3134765625	715.633544921875	-504.8526000976562	-3128.600830078125	475.7312927246094	-442.5028686523438	-2905.8828125	745.4154052734375	-468.0424499511719	-2872.107421875	622.0499877929688	-485.8174133300781	-2400.462890625	134.3607177734375	-177.8986968994141	-3055.98486328125	540.8167724609375	-460.9070129394531	-2939.765869140625	653.3369750976562	-455.5058288574219	-2559.57470703125	761.4659423828125	-181.3893280029297	-3206.841064453125	112.3968048095703	-423.3747863769531	-2628.377685546875	731.1331787109375	-174.4016418457031	-2513.79150390625	675.1124267578125	-203.8076629638672	-2587.38525390625	638.50439453125	-188.9505615234375	-2934.277099609375	573.943603515625	-471.2776184082031	-2540.997802734375	581.1513671875	-192.9921875	-3002.2060546875	480.1021728515625	-473.7039184570312	-3078.4169921875	412.6583557128906	-460.1070556640625	-2509.72509765625	458.6287841796875	-184.335693359375	-3252.638916015625	177.8320465087891	-468.2663269042969	-2596.25732421875	450.5916442871094	-186.7475280761719	-3274.8173828125	335.8807678222656	-332.4064331054688	-2507.824462890625	355.1185607910156	-194.7463836669922	-2587.47607421875	354.4088745117188	-196.1078796386719	-3234.682861328125	326.5341796875	-429.8830261230469	-2538.69580078125	176.7799377441406	-212.1988983154297	-2328.448974609375	158.4986419677734	-236.4932403564453	-2584.58642578125	138.1848297119141	-267.443603515625	-2565.519287109375	113.7528457641602	-297.644287109375	-2579.6279296875	115.795036315918	-240.9860534667969	-3292.878662109375	351.3377990722656	-383.9355773925781
